<svg width="79" height="14" viewBox="0 0 79 14" fill="none" xmlns="http://www.w3.org/2000/svg">
<path d="M5.25497 0.818182H3.23153L0.710938 2.41406V4.32315L3.04261 2.86151H3.10227V11H5.25497V0.818182ZM7.67489 11H14.9334V9.24006H10.6578V9.17045L12.1444 7.71378C14.2374 5.80469 14.7992 4.85014 14.7992 3.69176C14.7992 1.92685 13.3574 0.678977 11.1749 0.678977C9.03711 0.678977 7.57049 1.95668 7.57546 3.95526H9.61879C9.61381 2.98082 10.2303 2.38423 11.16 2.38423C12.0549 2.38423 12.7211 2.94105 12.7211 3.83594C12.7211 4.64631 12.2239 5.20312 11.2992 6.09304L7.67489 9.44886V11ZM23.4174 0.678977C21.1404 0.669033 19.6042 2.16051 19.6142 4.20881C19.6191 6.10795 20.9366 7.48509 22.7413 7.48509C23.8599 7.48509 24.8542 6.94318 25.3066 6.0483H25.3762C25.3713 8.06676 24.6703 9.29474 23.3429 9.29474C22.5623 9.29474 22.0005 8.86719 21.8365 8.12642H19.7136C19.9125 9.84162 21.3045 11.1392 23.3429 11.1392C25.8635 11.1392 27.4892 9.10085 27.4842 5.6456C27.4792 1.95668 25.5105 0.68892 23.4174 0.678977ZM23.4324 2.36932C24.4217 2.36932 25.1525 3.17472 25.1625 4.14418C25.1674 5.11861 24.3968 5.92401 23.4125 5.92401C22.4181 5.92401 21.7072 5.14844 21.7022 4.14915C21.6923 3.15483 22.4331 2.36932 23.4324 2.36932ZM32.6596 0.678977C30.3826 0.669033 28.8464 2.16051 28.8564 4.20881C28.8613 6.10795 30.1788 7.48509 31.9835 7.48509C33.1021 7.48509 34.0964 6.94318 34.5488 6.0483H34.6184C34.6135 8.06676 33.9125 9.29474 32.585 9.29474C31.8045 9.29474 31.2427 8.86719 31.0787 8.12642H28.9558C29.1547 9.84162 30.5467 11.1392 32.585 11.1392C35.1056 11.1392 36.7314 9.10085 36.7264 5.6456C36.7214 1.95668 34.7527 0.68892 32.6596 0.678977ZM32.6745 2.36932C33.6639 2.36932 34.3947 3.17472 34.4047 4.14418C34.4096 5.11861 33.639 5.92401 32.6547 5.92401C31.6603 5.92401 30.9494 5.14844 30.9444 4.14915C30.9345 3.15483 31.6752 2.36932 32.6745 2.36932ZM41.9018 0.678977C39.6248 0.669033 38.0886 2.16051 38.0985 4.20881C38.1035 6.10795 39.421 7.48509 41.2257 7.48509C42.3443 7.48509 43.3386 6.94318 43.791 6.0483H43.8606C43.8556 8.06676 43.1547 9.29474 41.8272 9.29474C41.0467 9.29474 40.4849 8.86719 40.3208 8.12642H38.198C38.3968 9.84162 39.7889 11.1392 41.8272 11.1392C44.3478 11.1392 45.9735 9.10085 45.9686 5.6456C45.9636 1.95668 43.9949 0.68892 41.9018 0.678977ZM41.9167 2.36932C42.9061 2.36932 43.6369 3.17472 43.6468 4.14418C43.6518 5.11861 42.8812 5.92401 41.8968 5.92401C40.9025 5.92401 40.1916 5.14844 40.1866 4.14915C40.1767 3.15483 40.9174 2.36932 41.9167 2.36932ZM50.7202 13.8636H52.8381V9.77699H52.9027C53.196 10.4134 53.8374 11.1243 55.0703 11.1243C56.8104 11.1243 58.1676 9.74716 58.1676 7.19176C58.1676 4.56676 56.7507 3.2642 55.0753 3.2642C53.7976 3.2642 53.1861 4.02486 52.9027 4.64631H52.8082V3.36364H50.7202V13.8636ZM52.7933 7.18182C52.7933 5.8196 53.37 4.94957 54.3991 4.94957C55.4482 4.94957 56.005 5.85938 56.005 7.18182C56.005 8.5142 55.4382 9.43892 54.3991 9.43892C53.38 9.43892 52.7933 8.54403 52.7933 7.18182ZM60.6273 13.8636C62.2033 13.8636 63.0385 13.0582 63.4711 11.8253L66.4391 3.37358L64.1969 3.36364L62.601 8.97159H62.5215L60.9405 3.36364H58.7132L61.4526 11.2188L61.3283 11.5419C61.0499 12.2578 60.5179 12.2926 59.7722 12.0639L59.2949 13.6449C59.5982 13.7741 60.0904 13.8636 60.6273 13.8636ZM73.8716 0.559658C73.4988 0.823153 72.9022 0.818182 72.0868 0.818182C71.8929 0.818182 71.6891 0.81321 71.4703 0.818182C68.6912 0.843039 67.2395 2.5831 67.2395 6.26207V6.88849C67.2395 9.66264 68.6713 11.1491 70.9831 11.1491C73.29 11.1491 74.7168 9.66264 74.7168 7.33097C74.7168 5.09375 73.4093 3.75639 71.4604 3.75639C70.2324 3.75639 69.4071 4.28835 68.9498 5.22301H68.8752C69.0542 3.34872 69.7701 2.57812 71.54 2.55824C73.106 2.53338 73.8667 2.47869 74.5179 1.94176L73.8716 0.559658ZM70.9931 9.50852C69.9938 9.50852 69.3922 8.70312 69.3922 7.40057C69.4022 6.09801 69.9988 5.36222 70.9831 5.36222C71.9625 5.36222 72.5641 6.09801 72.5641 7.40057C72.5641 8.7081 71.9625 9.50852 70.9931 9.50852ZM77.3604 11.1293C77.9968 11.1293 78.5487 10.5973 78.5536 9.93608C78.5487 9.2848 77.9968 8.75284 77.3604 8.75284C76.7042 8.75284 76.1623 9.2848 76.1673 9.93608C76.1623 10.5973 76.7042 11.1293 77.3604 11.1293Z" fill="black"/>
</svg>
